FILE "Conversational Arabic Quick and Easy꞉ The Most Advanced Revolutionary Technique to Learn Lebanese Arabic Dialect! [B07141RDSD].m4b" MP3
TRACK 1 AUDIO
  TITLE "Opening Credits"
  INDEX 01 0:00:00
TRACK 2 AUDIO
  TITLE "Chapter 1"
  INDEX 01 0:31:64
TRACK 3 AUDIO
  TITLE "Chapter 2"
  INDEX 01 3:48:46
TRACK 4 AUDIO
  TITLE "Chapter 3"
  INDEX 01 10:51:55
TRACK 5 AUDIO
  TITLE "Chapter 4"
  INDEX 01 13:50:64
TRACK 6 AUDIO
  TITLE "Chapter 5"
  INDEX 01 20:25:30
TRACK 7 AUDIO
  TITLE "Chapter 6"
  INDEX 01 24:52:60
TRACK 8 AUDIO
  TITLE "Chapter 7"
  INDEX 01 28:45:63
TRACK 9 AUDIO
  TITLE "Chapter 8"
  INDEX 01 32:55:58
TRACK 10 AUDIO
  TITLE "Chapter 9"
  INDEX 01 36:54:26
TRACK 11 AUDIO
  TITLE "Chapter 10"
  INDEX 01 41:06:35
TRACK 12 AUDIO
  TITLE "Chapter 11"
  INDEX 01 46:54:40
TRACK 13 AUDIO
  TITLE "Chapter 12"
  INDEX 01 50:03:65
TRACK 14 AUDIO
  TITLE "Chapter 13"
  INDEX 01 53:36:07
TRACK 15 AUDIO
  TITLE "Chapter 14"
  INDEX 01 56:29:10
TRACK 16 AUDIO
  TITLE "Chapter 15"
  INDEX 01 59:32:25
TRACK 17 AUDIO
  TITLE "Chapter 16"
  INDEX 01 62:36:49
TRACK 18 AUDIO
  TITLE "Chapter 17"
  INDEX 01 66:29:21
TRACK 19 AUDIO
  TITLE "Chapter 18"
  INDEX 01 69:02:19
TRACK 20 AUDIO
  TITLE "Chapter 19"
  INDEX 01 71:33:10
TRACK 21 AUDIO
  TITLE "Chapter 20"
  INDEX 01 73:54:23
TRACK 22 AUDIO
  TITLE "Chapter 21"
  INDEX 01 77:37:41
TRACK 23 AUDIO
  TITLE "Chapter 22"
  INDEX 01 80:39:30
TRACK 24 AUDIO
  TITLE "Chapter 23"
  INDEX 01 83:04:50
TRACK 25 AUDIO
  TITLE "Chapter 24"
  INDEX 01 86:58:02
TRACK 26 AUDIO
  TITLE "Chapter 25"
  INDEX 01 90:06:36
TRACK 27 AUDIO
  TITLE "Chapter 26"
  INDEX 01 93:16:35
TRACK 28 AUDIO
  TITLE "Chapter 27"
  INDEX 01 96:19:40
TRACK 29 AUDIO
  TITLE "Chapter 28"
  INDEX 01 101:56:34
TRACK 30 AUDIO
  TITLE "Chapter 29"
  INDEX 01 104:51:61
TRACK 31 AUDIO
  TITLE "End Credits"
  INDEX 01 105:38:61
